<svg xmlns="http://www.w3.org/2000/svg" viewBox="0 0 498.3274 164.2658">
	<defs>
		<style>
			.a {
				fill: #fff
			}

			.b {
				fill: #eb602b
			}
		</style>
	</defs>
	<path class="a" d="M497.098 54.7638a4.1778 4.1778 0 00-2.9733-1.2356l-7.9032-.0193.045-20.408a4.2134 4.2134 0 00-4.2025-4.2283l-7.4752-.016a4.221 4.221 0 00-4.2122 4.2057l-.045 20.4144-7.7134-.0193a4.2134 4.2134 0 00-4.2122 4.2026l-.0193 7.5009a4.2134 4.2134 0 004.2026 4.225l7.7069.0162-.1127 50.9619a18.2358 18.2358 0 0018.2262 18.5544l4.119.0096a4.2134 4.2134 0 004.2122-4.2058l.016-7.5427a4.2134 4.2134 0 00-4.1993-4.2251l-3.9902-.0097c-1.4288-.0032-1.8953-.3186-2.0337-.457s-.4602-.621-.457-2.0916l.1094-50.9586 7.9096.016a4.221 4.221 0 004.2155-4.2025l.016-7.4977a4.1874 4.1874 0 00-1.2292-2.9895zM442.648 64.6203a36.782 36.782 0 00-26.876-11.1404 34.6927 34.6927 0 00-21.8173 7.5299l.0611-27.9603a4.2134 4.2134 0 00-4.2025-4.2251l-7.6554-.0194a4.221 4.221 0 00-4.2123 4.2058l-.222 101.4765a4.2134 4.2134 0 004.2026 4.2284l7.6521.016a4.221 4.221 0 004.2155-4.2025l.0933-43.1842a21.546 21.546 0 016.3682-15.4105 21.4144 21.4144 0 0115.5586-6.4358 20.6638 20.6638 0 0115.3976 6.5098 20.9228 20.9228 0 016.423 15.4362l-.0933 43.1649a4.2134 4.2134 0 004.2025 4.2251l7.6297.0193a4.2079 4.2079 0 004.2122-4.2026l.0965-43.1745a36.1342 36.1342 0 00-9.4831-25.1318 14.7226 14.7226 0 00-1.551-1.7248zM250.0406 122.507h-1.165a3.4407 3.4407 0 01-2.1752-.4697 3.1312 3.1312 0 01-.457-2.082l.1899-87.086a4.2134 4.2134 0 00-4.2026-4.2251l-7.4784-.0161a4.2134 4.2134 0 00-4.209 4.2026l-.1898 87.0924a18.2473 18.2473 0 0018.3452 18.564l1.3225.0033a4.2079 4.2079 0 004.2123-4.2026l.016-7.5556a4.2134 4.2134 0 00-4.209-4.2251zM35.7348 52.6593l-7.916-.016.0419-20.4852a4.2134 4.2134 0 00-4.2026-4.2283l-7.4817-.0161a4.221 4.221 0 00-4.2154 4.2026l-.045 20.4916-7.6876-.0161a4.2134 4.2134 0 00-4.2122 4.2058L0 64.276a4.2134 4.2134 0 004.2026 4.225l7.6779.0194-.1094 50.8975a18.2572 18.2572 0 0018.2068 18.5576l4.1254.0097a4.2203 4.2203 0 004.2122-4.2026l.0161-7.4913a4.2134 4.2134 0 00-4.2026-4.2219l-3.9837-.0096a3.1328 3.1328 0 01-2.008-.4634c-.177-.1802-.4698-.6983-.4666-2.1431l.1094-50.9008 7.9289.0194a4.2079 4.2079 0 004.2122-4.2058l.0161-7.4784a4.2134 4.2134 0 00-4.2026-4.2284zM86.642 52.7591a35.4634 35.4634 0 00-16.2986 3.942 33.8805 33.8805 0 00-5.5928 3.6361l.0612-27.9024a4.2134 4.2134 0 00-4.2026-4.225l-7.6264-.0161a4.2078 4.2078 0 00-4.209 4.2026l-.222 101.3831a4.2134 4.2134 0 004.2026 4.2251l7.6264.0161a4.3283 4.3283 0 002.9669-1.226 4.1981 4.1981 0 001.2421-2.9765l.0933-43.1843a21.1333 21.1333 0 016.3843-15.388 21.4324 21.4324 0 0115.5553-6.4551 22.1769 22.1769 0 0121.8528 21.9396l-.0933 43.1842a4.2154 4.2154 0 004.1993 4.222l7.6103.016a4.221 4.221 0 004.2155-4.2026l.0933-43.1842A37.9257 37.9257 0 0086.642 52.759zM171.1956 52.9232a38.1263 38.1263 0 00-37.9133 37.8425l-.0258 10.8057a36.5943 36.5943 0 0010.9763 26.7504l.2445.235a38.9702 38.9702 0 0026.6217 10.0365l16.8586.0387a4.221 4.221 0 004.2122-4.2058l.013-6.5002a4.2134 4.2134 0 00-4.2026-4.2283l-16.8457-.0386a21.9819 21.9819 0 01-15.549-6.41 21.0845 21.0845 0 01-6.2845-13.0261l55.586.1222a4.2217 4.2217 0 004.2155-4.2058l.0193-9.2096a38.147 38.147 0 00-37.9262-38.0066zM149.346 88.1914a20.8688 20.8688 0 016.3393-12.7719 21.4398 21.4398 0 0115.5682-6.4647 22.214 22.214 0 0121.695 19.3363zM355.5716 65.3314a37.8337 37.8337 0 00-53.6295.0129 35.89 35.89 0 00-10.1815 18.2487 36.8821 36.8821 0 00-.9686 8.4245l-.0225 10.78a36.479 36.479 0 008.2829 23.7449l1.7988 2.0884 4.18 3.6233a38.0945 38.0945 0 0017.943 7.2146l.5503.0772a39.9533 39.9533 0 005.1615.3314 42.1952 42.1952 0 0015.8964-2.999 28.0914 28.0914 0 004.5695-2.3877 18.4598 18.4598 0 01-2.2043 4.003 26.0366 26.0366 0 01-2.9412 3.3885 20.2773 20.2773 0 01-11.3077 6.0529c-1.242.238-6.3618.3636-17.0967-.0258a4.2015 4.2015 0 00-4.2701 4.2026l-.0193 7.7294a4.194 4.194 0 004.0674 4.2155c2.4392.0804 6.9507.2091 11.0213.2091 3.2565 0 5.5509-.0804 7.015-.2413a35.3627 35.3627 0 0016.0927-5.9725 40.0563 40.0563 0 005.863-4.875 36.8036 36.8036 0 009.6055-15.3655 34.29 34.29 0 001.5574-10.3295l.0773-35.3004a36.065 36.065 0 00-7.2146-22.2711 31.77 31.77 0 00-3.826-4.579zm-4.9749 26.8148l-.0257 10.7864a22.63 22.63 0 01-.1223 2.3362 22.0092 22.0092 0 01-21.827 19.5841 21.5866 21.5866 0 01-15.5264-6.3521 24.326 24.326 0 01-1.905-2.156l-1.2357-1.7441a20.7026 20.7026 0 01-3.295-11.7679l.0224-10.7832a19.784 19.784 0 01.354-3.7166 20.2436 20.2436 0 016.1848-11.6617 21.1856 21.1856 0 0115.52-6.4648 20.9224 20.9224 0 0115.6068 6.6933 6.2237 6.2237 0 01.5535.6275 20.7367 20.7367 0 015.6956 14.6189zM277.2672 52.9908l-7.6071.016a4.2134 4.2134 0 00-4.2058 4.222l.1705 77.088a4.1984 4.1984 0 001.2293 2.9733l.0064.0064a4.2096 4.2096 0 002.983 1.2293l7.6103-.0161a4.2286 4.2286 0 004.2026-4.2219l-.1706-77.0944a4.2217 4.2217 0 00-4.2186-4.2026z" />
	<path class="b" d="M281.2107 17.2282a13.1822 13.1822 0 109.8916 15.8021 13.182 13.182 0 00-9.8916-15.802zm4.7863 14.6277a7.9436 7.9436 0 11-5.9604-9.5223 7.9438 7.9438 0 015.9604 9.5223zM294.5533 21.9292a7.804 7.804 0 10-5.8562-9.355 7.8044 7.8044 0 005.8562 9.355zm-2.8334-8.6598a4.7026 4.7026 0 113.5289 5.6374 4.7024 4.7024 0 01-3.5289-5.6374zM305.3286 7.7055a3.902 3.902 0 10-2.9283-4.6776 3.902 3.902 0 002.9283 4.6776z" />
</svg>