<svg version="1.2" xmlns="http://www.w3.org/2000/svg" viewBox="0 0 1024 1024" width="1024" height="1024">
	<title>headset-svg</title>
	<style>
		.s0 { fill: #ffffff } 
	</style>
	<path id="Layer" fill-rule="evenodd" class="s0" d="m802 723.5c31 12.9 59.2 31.7 83 55.5 23.8 23.8 42.6 52 55.5 83 12.9 31.1 19.5 64.4 19.5 98 0 8.4-1.7 16.7-4.9 24.5-3.2 7.8-7.9 14.8-13.8 20.8-6 5.9-13 10.6-20.8 13.8-7.8 3.2-16.1 4.9-24.5 4.9h-768c-8.4 0-16.7-1.7-24.5-4.9-7.8-3.2-14.8-7.9-20.8-13.8-5.9-6-10.6-13-13.8-20.8-3.2-7.8-4.9-16.1-4.9-24.5 0-33.6 6.6-66.9 19.5-98 12.9-31 31.7-59.2 55.5-83 23.8-23.8 52-42.6 83-55.5 31.1-12.9 64.4-19.5 98-19.5h46.2c22.8 10.5 46.7 18.5 71.2 23.9 24.5 5.4 49.5 8.1 74.6 8.1 25.1 0 50.1-2.7 74.6-8.1 24.5-5.4 48.4-13.4 71.2-23.9h46.2c33.6 0 66.9 6.6 98 19.5zm-654.2-277.9c-3.9-1.6-7.5-4-10.4-7-3-2.9-5.4-6.5-7-10.4-1.6-3.8-2.4-8-2.4-12.2v-32c0-211.7 172.3-384 384-384 211.7 0 384 172.3 384 384v32c0 29.4-5.9 58.5-17.1 85.7-11.3 27.1-27.8 51.8-48.6 72.6-20.8 20.8-45.5 37.3-72.6 48.6-27.2 11.2-56.3 17.1-85.7 17.1h-192c-17 0-33.3-6.7-45.3-18.7-12-12-18.7-28.3-18.7-45.3 0-17 6.7-33.3 18.7-45.3 12-12 28.3-18.7 45.3-18.7h64c8.4 0 16.7 1.7 24.5 4.9 7.8 3.2 14.8 7.9 20.8 13.8 5.9 6 10.6 13 13.8 20.8 3.2 7.8 4.9 16.1 4.9 24.5h64c21 0 41.8-4.2 61.2-12.2 19.4-8.1 37-19.9 51.9-34.7 14.8-14.9 26.6-32.5 34.7-51.9 8-19.4 12.2-40.2 12.2-61.2v-32c0-176.4-143.6-320-320-320-176.4 0-320 143.6-320 320v32c0 4.2-0.8 8.4-2.4 12.2-1.6 3.9-4 7.5-7 10.4-2.9 3-6.5 5.4-10.4 7-3.8 1.6-8 2.4-12.2 2.4-4.2 0-8.4-0.8-12.2-2.4zm283.2 12.2c-15.5 6.4-29.6 15.8-41.5 27.7-11.9 11.9-21.3 26-27.7 41.5-6.5 15.6-9.8 32.2-9.8 49 0 2.4 0.6 4.6 0.7 6.9-58.5-46.9-96.7-118.1-96.7-198.9 0-67.9 27-133 75-181 48-48 113.1-75 181-75 67.9 0 133 27 181 75 48 48 75 113.1 75 181v32c0 12.6-2.5 25.1-7.3 36.7-4.9 11.7-11.9 22.2-20.8 31.2-9 8.9-19.5 15.9-31.2 20.8-11.6 4.8-24.1 7.3-36.7 7.3h-17.2c-5.6-9.7-12.4-18.6-20.3-26.5-7.9-7.9-16.8-14.8-26.5-20.3-9.7-5.6-20.1-9.9-30.9-12.8-10.8-2.9-21.9-4.4-33.1-4.4h-64c-16.8 0-33.4 3.3-49 9.8z"/>
</svg>